<svg width="393" height="314" viewBox="0 0 393 314" fill="none" xmlns="http://www.w3.org/2000/svg">
<path d="M281.805 1L385.84 138.345C390.121 144.135 392.261 151.192 392.261 159.517C392.261 163.498 391.711 167.298 390.611 170.917C389.51 174.536 387.92 177.612 385.84 180.146L282.539 313.42H233.367L352.447 158.974L233 1H281.805Z" fill="url(#paint0_linear_2_2)"/>
<path d="M240.645 128C246.219 128 250.815 130.667 254.438 135.996C258.198 141.326 260.08 148.295 260.08 156.907C260.08 165.518 258.198 172.487 254.438 177.817C250.815 183.147 246.219 185.813 240.645 185.813C235.072 185.813 230.403 183.045 226.643 177.51C222.882 171.974 221 165.107 221 156.907C221 148.295 222.882 141.326 226.643 135.996C230.403 130.667 235.072 128 240.645 128Z" fill="#FFFEFE"/>
<path d="M159.645 128C165.219 128 169.815 130.667 173.438 135.996C177.198 141.326 179.08 148.295 179.08 156.907C179.08 165.518 177.198 172.487 173.438 177.817C169.815 183.147 165.219 185.813 159.645 185.813C154.072 185.813 149.403 183.045 145.643 177.51C141.882 171.974 140 165.107 140 156.907C140 148.295 141.882 141.326 145.643 135.996C149.403 130.667 154.072 128 159.645 128Z" fill="#FFFEFE"/>
<path d="M110.456 312.537L6.55098 175.082C2.27566 169.287 0.141935 162.227 0.149802 153.903C0.153564 149.922 0.70727 146.122 1.81095 142.505C2.91463 138.887 4.50782 135.812 6.59048 133.281L110.017 0.117007L159.189 0.169442L39.963 154.489L159.261 312.589L110.456 312.537Z" fill="white"/>
<defs>
<linearGradient id="paint0_linear_2_2" x1="301.682" y1="-183.492" x2="301.682" y2="350.167" gradientUnits="userSpaceOnUse">
<stop offset="0.677083" stop-color="#226DFE"/>
<stop offset="1" stop-color="#3CFFF3"/>
</linearGradient>
</defs>
</svg>
