<svg width="72" height="70" viewBox="0 0 72 70" fill="none" xmlns="http://www.w3.org/2000/svg">
<path d="M38.4599 39.2683C39.2838 39.2683 39.9635 39.6095 40.499 40.2915C41.0553 40.9736 41.3333 41.8655 41.3333 42.9675C41.3333 44.0694 41.0553 44.9613 40.499 45.6435C39.9635 46.3254 39.2838 46.6667 38.4599 46.6667C37.6359 46.6667 36.9459 46.3125 36.3897 45.6041C35.8336 44.8957 35.5555 44.0169 35.5555 42.9675C35.5555 41.8655 35.8336 40.9736 36.3897 40.2915C36.9459 39.6095 37.6359 39.2683 38.4599 39.2683Z" fill="white"/>
<path d="M50.9045 39.2683C51.7285 39.2683 52.408 39.6095 52.9436 40.2915C53.4996 40.9736 53.7778 41.8655 53.7778 42.9675C53.7778 44.0694 53.4996 44.9613 52.9436 45.6435C52.408 46.3254 51.7285 46.6667 50.9045 46.6667C50.0804 46.6667 49.3902 46.3125 48.8342 45.6041C48.2782 44.8957 48 44.0169 48 42.9675C48 41.8655 48.2782 40.9736 48.8342 40.2915C49.3902 39.6095 50.0804 39.2683 50.9045 39.2683Z" fill="white"/>
<path d="M39.9089 63.1707H33.9193L18.0339 42.6907L8.18145 51.7775V63.1707H3.73267V23.3222H8.18145V45.5251L32.5738 23.3222H39.0625L21.4193 39.5506L39.9089 63.1707Z" fill="white"/>
<path d="M55.5058 23.6096L70.8867 41.1857C71.5196 41.9267 71.836 42.8298 71.836 43.8951C71.836 44.4045 71.7547 44.8908 71.592 45.354C71.4293 45.8171 71.1942 46.2108 70.8867 46.535L55.6142 63.5902H48.3444L65.9498 43.8256L48.2902 23.6096H55.5058Z" fill="url(#paint0_linear_24_2)"/>
<defs>
<linearGradient id="paint0_linear_24_2" x1="58.4444" y1="1.74355e-05" x2="58.4444" y2="68.2927" gradientUnits="userSpaceOnUse">
<stop offset="0.677083" stop-color="#226DFE"/>
<stop offset="1" stop-color="#3CFFF3"/>
</linearGradient>
</defs>
</svg>
