<svg width="333" height="267" viewBox="0 0 333 267" fill="none" xmlns="http://www.w3.org/2000/svg">
<path d="M221.437 42.0792C232.605 50.8435 238.118 68.2252 248.439 85.302C258.758 102.381 274.026 119.158 270.492 131.853C266.958 144.547 244.763 153.011 231.05 168.88C217.337 184.751 212.106 207.873 198.818 221.023C185.529 234.019 164.181 236.891 150.327 226.16C136.332 215.58 129.97 191.399 115.551 174.322C101.272 157.092 79.0771 146.966 68.7562 129.586C58.2958 112.053 59.8505 87.2689 72.9978 73.0601C86.145 58.8535 110.885 55.0754 129.97 50.2405C149.196 45.252 162.627 39.2067 177.895 36.1852C193.163 33.3127 210.127 33.464 221.437 42.0792Z" fill="url(#paint0_linear_3_16)"/>
<path d="M97.2422 69.0396L235.758 69.6648C240.436 69.6648 241.718 70.1899 241.718 75.1917L244.228 82.4719V191.808C244.228 196.81 240.436 200.864 235.758 200.864H97.2422C92.5636 200.864 88.7716 196.81 88.7716 191.808V82.4719L91.0547 75.1917C91.0547 70.1899 92.5636 69.0396 97.2422 69.0396Z" fill="#393838"/>
<path d="M97.2422 66.1359H235.758C240.436 66.1359 244.228 70.1899 244.228 75.1917V82.4719H88.7716V75.1917C88.7716 70.1899 92.5636 66.1359 97.2422 66.1359Z" fill="#0F0F0F"/>
<path d="M100.714 77.3299C102.173 77.3299 103.355 76.0639 103.355 74.5064C103.355 72.9467 102.173 71.6829 100.714 71.6829C99.2569 71.6829 98.0727 72.9467 98.0727 74.5064C98.0727 76.0639 99.2569 77.3299 100.714 77.3299Z" fill="#868686"/>
<path d="M109.299 77.3299C110.756 77.3299 111.94 76.0639 111.94 74.5064C111.94 72.9467 110.756 71.6829 109.299 71.6829C107.84 71.6829 106.658 72.9467 106.658 74.5064C106.658 76.0639 107.84 77.3299 109.299 77.3299Z" fill="#3A3939"/>
<path d="M117.882 77.3299C119.341 77.3299 120.523 76.0639 120.523 74.5064C120.523 72.9467 119.341 71.6829 117.882 71.6829C116.423 71.6829 115.241 72.9467 115.241 74.5064C115.241 76.0639 116.423 77.3299 117.882 77.3299Z" fill="#3A3939"/>
<path d="M146.992 74.4441H186.026" stroke="#3A3939" stroke-width="4" stroke-linecap="round" stroke-linejoin="round"/>
<path d="M166.423 119.821C136.278 119.821 120.74 142.34 120.74 142.34C120.74 142.34 136.278 164.859 166.423 164.859C196.57 164.859 212.109 142.34 212.109 142.34C212.109 142.34 196.57 119.821 166.423 119.821Z" fill="#226DFE"/>
<path d="M178.088 151.692C182.917 144.807 181.61 135.042 175.175 129.882C168.733 124.716 159.601 126.113 154.772 132.997C149.942 139.879 151.247 149.647 157.688 154.807C164.123 159.969 173.258 158.573 178.088 151.692Z" fill="white"/>
<path d="M166.423 146.843C168.752 146.843 170.638 144.83 170.638 142.34C170.638 139.852 168.752 137.836 166.423 137.836C164.096 137.836 162.211 139.852 162.211 142.34C162.211 144.83 164.096 146.843 166.423 146.843Z" fill="#231F20"/>
<path d="M236.055 97.5885C248.362 99.3618 259.68 90.1325 261.338 76.9761C262.995 63.8219 254.362 51.7201 242.058 49.949C229.751 48.1779 218.433 57.405 216.775 70.5614C215.118 83.7156 223.751 95.8174 236.055 97.5885Z" fill="black"/>
<path d="M243.841 62.9964L242.276 75.423C242.024 77.4166 240.322 78.8072 238.455 78.538C236.59 78.2688 235.292 76.4487 235.543 74.4529L237.108 62.0285C237.358 60.0327 239.063 58.6443 240.928 58.9135C242.797 59.1583 244.093 61.0028 243.841 62.9964Z" fill="white"/>
<path d="M237.185 88.624C239.044 88.8932 240.755 87.4981 241.005 85.5112C241.256 83.522 239.951 81.6931 238.093 81.4261C236.232 81.1591 234.521 82.5519 234.272 84.5411C234.022 86.528 235.325 88.357 237.185 88.624Z" fill="white"/>
<defs>
<linearGradient id="paint0_linear_3_16" x1="154.727" y1="232.639" x2="250.03" y2="231.523" gradientUnits="userSpaceOnUse">
<stop stop-color="#226DFE"/>
<stop offset="1" stop-color="#3CFFF3" stop-opacity="0.62"/>
</linearGradient>
</defs>
</svg>
