<svg width="338" height="270" viewBox="0 0 338 270" fill="none" xmlns="http://www.w3.org/2000/svg">
<path d="M224.762 42.552C236.097 51.4147 241.693 68.9917 252.169 86.2605C262.643 103.531 278.14 120.496 274.553 133.335C270.966 146.171 248.438 154.73 234.519 170.777C220.6 186.826 215.291 210.208 201.803 223.506C188.315 236.648 166.647 239.553 152.584 228.701C138.379 218.002 131.921 193.549 117.286 176.281C102.792 158.857 80.2644 148.617 69.7885 131.042C59.1711 113.312 60.7492 88.2495 74.0938 73.881C87.4385 59.5147 112.55 55.6942 131.921 50.805C151.437 45.7605 165.069 39.6472 180.566 36.5917C196.063 33.687 213.282 33.84 224.762 42.552Z" fill="url(#paint0_linear_3_36)"/>
<path d="M98.7023 69.8152L239.298 70.4475C244.047 70.4475 245.348 70.9785 245.348 76.0365L247.896 83.3985V193.963C247.896 199.021 244.047 203.121 239.298 203.121H98.7023C93.9534 203.121 90.1045 199.021 90.1045 193.963V83.3985L92.4219 76.0365C92.4219 70.9785 93.9534 69.8152 98.7023 69.8152Z" fill="#363636"/>
<path d="M98.7023 66.879H239.298C244.047 66.879 247.896 70.9785 247.896 76.0365V83.3985H90.1045V76.0365C90.1045 70.9785 93.9534 66.879 98.7023 66.879Z" fill="#0C0C0C"/>
<path d="M102.226 78.1987C103.707 78.1987 104.907 76.9185 104.907 75.3435C104.907 73.7662 103.707 72.4883 102.226 72.4883C100.747 72.4883 99.5452 73.7662 99.5452 75.3435C99.5452 76.9185 100.747 78.1987 102.226 78.1987Z" fill="#848484"/>
<path d="M110.94 78.1987C112.419 78.1987 113.621 76.9185 113.621 75.3435C113.621 73.7662 112.419 72.4883 110.94 72.4883C109.459 72.4883 108.259 73.7662 108.259 75.3435C108.259 76.9185 109.459 78.1987 110.94 78.1987Z" fill="#373737"/>
<path d="M119.652 78.1987C121.133 78.1987 122.333 76.9185 122.333 75.3435C122.333 73.7662 121.133 72.4883 119.652 72.4883C118.171 72.4883 116.971 73.7662 116.971 75.3435C116.971 76.9185 118.171 78.1987 119.652 78.1987Z" fill="#373737"/>
<path d="M149.2 75.2805H188.819" stroke="#373737" stroke-width="4" stroke-linecap="round" stroke-linejoin="round"/>
<path d="M143.77 106.277H197.489C201.007 106.277 203.863 109.319 203.863 113.063V168.903C203.863 172.65 201.007 175.691 197.489 175.691H143.77C140.255 175.691 137.399 172.65 137.399 168.903V113.063C137.399 109.319 140.255 106.277 143.77 106.277Z" fill="#226DFE"/>
<path d="M157.176 135.313C158.596 135.313 159.758 136.55 159.758 138.062V143.906C159.758 145.418 158.596 146.653 157.176 146.653C155.757 146.653 154.595 145.418 154.595 143.906V138.062C154.612 136.55 155.757 135.313 157.176 135.313Z" stroke="#363636" stroke-width="4" stroke-linecap="round" stroke-linejoin="round"/>
<path d="M166.146 135.313C167.566 135.313 168.728 136.55 168.728 138.062V143.906C168.728 145.418 167.566 146.653 166.146 146.653C164.726 146.653 163.565 145.418 163.565 143.906V138.062C163.581 136.55 164.726 135.313 166.146 135.313Z" stroke="#363636" stroke-width="4" stroke-linecap="round" stroke-linejoin="round"/>
<path d="M145.627 135.313H148.207V146.653" stroke="#363636" stroke-width="4" stroke-linecap="round" stroke-linejoin="round"/>
<path d="M145.627 146.653H150.788" stroke="#363636" stroke-width="4" stroke-linecap="round" stroke-linejoin="round"/>
<path d="M172.534 135.313H175.116V146.653" stroke="#363636" stroke-width="4" stroke-linecap="round" stroke-linejoin="round"/>
<path d="M172.534 146.653H177.697" stroke="#363636" stroke-width="4" stroke-linecap="round" stroke-linejoin="round"/>
<path d="M184.083 135.313C185.503 135.313 186.665 136.55 186.665 138.062V143.906C186.665 145.418 185.503 146.653 184.083 146.653C182.664 146.653 181.504 145.418 181.504 143.906V138.062C181.504 136.55 182.664 135.313 184.083 135.313Z" stroke="#363636" stroke-width="4" stroke-linecap="round" stroke-linejoin="round"/>
<path d="M190.471 135.313H193.053V146.653" stroke="#363636" stroke-width="4" stroke-linecap="round" stroke-linejoin="round"/>
<path d="M190.471 146.653H195.634" stroke="#363636" stroke-width="4" stroke-linecap="round" stroke-linejoin="round"/>
<path d="M148.207 116.156C149.626 116.156 150.788 117.394 150.788 118.906V124.747C150.788 126.259 149.626 127.496 148.207 127.496C146.787 127.496 145.627 126.259 145.627 124.747V118.906C145.627 117.394 146.787 116.156 148.207 116.156Z" stroke="#363636" stroke-width="4" stroke-linecap="round" stroke-linejoin="round"/>
<path d="M166.146 116.156C167.566 116.156 168.728 117.394 168.728 118.906V124.747C168.728 126.259 167.566 127.496 166.146 127.496C164.726 127.496 163.565 126.259 163.565 124.747V118.906C163.581 117.394 164.726 116.156 166.146 116.156Z" stroke="#363636" stroke-width="4" stroke-linecap="round" stroke-linejoin="round"/>
<path d="M193.053 116.156C194.473 116.156 195.634 117.394 195.634 118.906V124.747C195.634 126.259 194.473 127.496 193.053 127.496C191.633 127.496 190.471 126.259 190.471 124.747V118.906C190.471 117.394 191.633 116.156 193.053 116.156Z" stroke="#363636" stroke-width="4" stroke-linecap="round" stroke-linejoin="round"/>
<path d="M154.612 116.156H157.193V127.496" stroke="#363636" stroke-width="4" stroke-linecap="round" stroke-linejoin="round"/>
<path d="M154.612 127.496H159.775" stroke="#363636" stroke-width="4" stroke-linecap="round" stroke-linejoin="round"/>
<path d="M172.534 116.156H175.116V127.496" stroke="#363636" stroke-width="4" stroke-linecap="round" stroke-linejoin="round"/>
<path d="M172.534 127.496H177.697" stroke="#363636" stroke-width="4" stroke-linecap="round" stroke-linejoin="round"/>
<path d="M181.504 116.156H184.083V127.496" stroke="#363636" stroke-width="4" stroke-linecap="round" stroke-linejoin="round"/>
<path d="M181.504 127.496H186.665" stroke="#363636" stroke-width="4" stroke-linecap="round" stroke-linejoin="round"/>
<path d="M184.633 154.472C186.052 154.472 187.214 155.709 187.214 157.221V163.062C187.214 164.574 186.052 165.812 184.633 165.812C183.213 165.812 182.051 164.574 182.051 163.062V157.221C182.051 155.709 183.213 154.472 184.633 154.472Z" stroke="#363636" stroke-width="4" stroke-linecap="round" stroke-linejoin="round"/>
<path d="M166.114 154.472C167.534 154.472 168.694 155.709 168.694 157.221V163.062C168.694 164.574 167.534 165.812 166.114 165.812C164.695 165.812 163.533 164.574 163.533 163.062V157.221C163.533 155.709 164.695 154.472 166.114 154.472Z" stroke="#363636" stroke-width="4" stroke-linecap="round" stroke-linejoin="round"/>
<path d="M175.373 154.472C176.793 154.472 177.955 155.709 177.955 157.221V163.062C177.955 164.574 176.793 165.812 175.373 165.812C173.954 165.812 172.792 164.574 172.792 163.062V157.221C172.792 155.709 173.954 154.472 175.373 154.472Z" stroke="#363636" stroke-width="4" stroke-linecap="round" stroke-linejoin="round"/>
<path d="M190.471 154.472H193.053V165.812" stroke="#363636" stroke-width="4" stroke-linecap="round" stroke-linejoin="round"/>
<path d="M190.471 165.812H195.634" stroke="#363636" stroke-width="4" stroke-linecap="round" stroke-linejoin="round"/>
<path d="M154.612 154.472H157.193V165.812" stroke="#363636" stroke-width="4" stroke-linecap="round" stroke-linejoin="round"/>
<path d="M154.612 165.812H159.775" stroke="#363636" stroke-width="4" stroke-linecap="round" stroke-linejoin="round"/>
<path d="M145.627 154.472H148.207V165.812" stroke="#363636" stroke-width="4" stroke-linecap="round" stroke-linejoin="round"/>
<path d="M145.627 165.812H150.788" stroke="#363636" stroke-width="4" stroke-linecap="round" stroke-linejoin="round"/>
<path d="M239.6 98.685C252.091 100.478 263.579 91.1452 265.262 77.841C266.944 64.539 258.181 52.3013 245.692 50.5103C233.201 48.7193 221.713 58.05 220.03 71.3543C218.348 84.6563 227.111 96.894 239.6 98.685Z" fill="black"/>
<path d="M247.503 63.7043L245.914 76.2705C245.658 78.2865 243.93 79.6928 242.035 79.4205C240.143 79.1483 238.824 77.3077 239.08 75.2895L240.669 62.7255C240.922 60.7073 242.652 59.3033 244.545 59.5755C246.442 59.823 247.758 61.6883 247.503 63.7043Z" fill="white"/>
<path d="M240.747 89.6198C242.633 89.892 244.37 88.4813 244.623 86.472C244.879 84.4605 243.554 82.611 241.668 82.341C239.779 82.071 238.043 83.4795 237.789 85.491C237.536 87.5003 238.858 89.3498 240.747 89.6198Z" fill="white"/>
<defs>
<linearGradient id="paint0_linear_3_36" x1="72.8256" y1="237.014" x2="272.401" y2="237.014" gradientUnits="userSpaceOnUse">
<stop stop-color="#226DFE"/>
<stop offset="1" stop-color="#3CFFF3" stop-opacity="0.62"/>
</linearGradient>
</defs>
</svg>
